# xmcd
#
# Track frame offsets:
# 150
# 15906
# 33956
# 46837
# 65733
# 80456
# 95468
# 118779
# 135985
# 150056
# 164320
# 176163
# 196973
# 211319
#
# Disc length: 3085 seconds
#
#
# Revision: 0
# Processed by: cddbd v1.5.2PL0 Copyright (c) Steve Scherf et al.
# Submitted via: FreeRIP 2.951 
#
DISCID=a80c0b0e
DTITLE=The Southsiders - Speeding Down The Highway
DYEAR=0097
DGENRE=Blues
TTITLE0=Speeding Down The Highway
TTITLE1=Born In Chicago
TTITLE2=Southside Man
TTITLE3=I'm A Ram
TTITLE4=Work Song
TTITLE5=Room To Move
TTITLE6=Full Moon On Mainstreet
TTITLE7=Taboo
TTITLE8=Too Many Drivers
TTITLE9=Fattin' Frogs For Snakes
TTITLE10=Squeeze Box
TTITLE11=Get Out Of My Life Woman
TTITLE12=In The Open
TTITLE13=Look Up To The Sunshine
EXTD=
EXTT0=
EXTT1=
EXTT2=
EXTT3=
EXTT4=
EXTT5=
EXTT6=
EXTT7=
EXTT8=
EXTT9=
EXTT10=
EXTT11=
EXTT12=
EXTT13=
PLAYORDER=
